# xmcd
#
# Track frame offsets: 
#        150
#        15113
#        29363
#        45442
#        61567
#        73891
#        86604
#        98895
#        111889
#        125652
#        136424
#        160209
#        174984
#        187153
#        200335
#        213404
#        230186
#        246396
#        258021
#        276059
#
# Disc length: 3851 seconds
#
# Revision: 1
# Processed by: cddbd v1.5.2PL0 Copyright (c) Steve Scherf et al.
# Submitted via: ExactAudioCopyFreeDBPlugin 1.0
#
DISCID=180f0914
DTITLE=B.B. King - Essential Original Albums [Disc 3]
DYEAR=2016
DGENRE=Blues
TTITLE0=I've Got a Right to Love My Baby
TTITLE1=What Way to Go
TTITLE2=Long Nights
TTITLE3=Feel Like a Million
TTITLE4=I'll Survive
TTITLE5=Good Man Gone Bad
TTITLE6=If I Lost You
TTITLE7=You're on the Top
TTITLE8=Partin' Time
TTITLE9=I'm King
TTITLE10=You Done Lost You Good Thing Now
TTITLE11=Mr. Pawnbroker
TTITLE12=Understand
TTITLE13=Someday Baby
TTITLE14=Driving Wheel
TTITLE15=Walking Dr. Bill
TTITLE16=My Own Fault, Baby
TTITLE17=Catfish Blues
TTITLE18=Hold That Train
TTITLE19=Please Set the Date
EXTD=
EXTT0=
EXTT1=
EXTT2=
EXTT3=
EXTT4=
EXTT5=
EXTT6=
EXTT7=
EXTT8=
EXTT9=
EXTT10=
EXTT11=
EXTT12=
EXTT13=
EXTT14=
EXTT15=
EXTT16=
EXTT17=
EXTT18=
EXTT19=
PLAYORDER=
